<?xml version="1.0" encoding="utf-8"?>
<!-- Svg Vector Icons : http://www.onlinewebfonts.com/icon -->
<!DOCTYPE svg PUBLIC "-//W3C//DTD SVG 1.1//EN" "http://www.w3.org/Graphics/SVG/1.1/DTD/svg11.dtd">
<svg version="1.1" xmlns="http://www.w3.org/2000/svg" xmlns:xlink="http://www.w3.org/1999/xlink" x="0px" y="0px" viewBox="0 0 1000 1000" enable-background="new 0 0 1000 1000" xml:space="preserve">
<metadata> Svg Vector Icons : http://www.onlinewebfonts.com/icon </metadata>
<g><g transform="translate(0.000000,511.000000) scale(0.100000,-0.100000)"><path d="M4157.8,3175l-803.9-206.7l178.6-53.6c99.5-30.6,1064.2-306.2,2143.8-617.6l1965.1-564l898.3,247.6c495.1,137.8,895.8,252.7,893.2,255.2c-2.6,2.6-860,224.6-1906.4,492.5c-1046.3,268-2049.3,525.7-2233.1,571.7l-331.8,84.2L4157.8,3175z"/><path d="M1644,2529.4c-518.1-135.3-972.3-255.2-1008.1-265.4c-68.9-20.4,63.8-58.7,3016.6-872.8L5023,1016l957,262.9c525.7,142.9,951.9,268,946.8,275.6c-20.4,20.4-4259.4,1225-4300.3,1222.4C2606.2,2776.9,2164.6,2664.6,1644,2529.4z"/><path d="M100,97.2v-2026.3l2368.3-617.6c1301.6-339.4,2381.1-617.6,2399-617.6c23,0,30.6,433.8,30.6,1975.3c0,1130.6-10.2,1983-23,1990.6C4857.1,814.4,406.2,2047,166.4,2108.3l-66.4,15.3V97.2z"/><path d="M8899.6,1842.9l-990.2-273.1v-439c0-288.4-10.2-441.5-25.5-441.5c-15.3,0-56.1,17.9-89.3,40.8c-58.7,38.3-63.8,35.7-120-51l-58.7-89.3l-81.7,51l-81.7,51l-56.1-79.1c-33.2-40.8-66.4-76.6-79.1-76.6c-10.2,0-22.9,194-25.5,428.7l-7.6,428.8l-1071.9-296l-1071.9-296l-7.7-1983c-2.6-1143.3,5.1-1982.9,17.9-1982.9c12.8,0,985.1,252.6,2161.6,558.9C8491.2-2296.6,9552.9-2021,9678-1987.8l222,53.6V92.1c0,1115.3-2.5,2026.4-5.1,2023.8C9889.8,2115.9,9443.2,1990.9,8899.6,1842.9z"/></g></g>
</svg>